<svg xmlns="http://www.w3.org/2000/svg" width="24" height="24" viewBox="0 0 24 24" fill="none">
<path d="M12 4c-3.9 0-7 1.6-7 3.5v9c0 1.9 3.1 3.5 7 3.5s7-1.6 7-3.5v-9C19 5.6 15.9 4 12 4Z" fill="white" stroke="#2F4F3F" stroke-width="1.6"/>
<path d="M5 8c0 1.9 3.1 3.5 7 3.5S19 9.9 19 8" stroke="#2F4F3F" stroke-width="1.4"/>
<path d="M12 8.2v6.2M10.1 10.2c.3-.7 1-1.1 1.9-1.1 1.1 0 1.9.5 1.9 1.3 0 .7-.4 1.1-1.6 1.5l-.6.2c-1 .3-1.5.8-1.5 1.6 0 .9.9 1.5 2 1.5.9 0 1.7-.4 2-1" stroke="#E7B7B2" stroke-width="1.4" stroke-linecap="round"/>
</svg>
